<?xml version="1.0" encoding="UTF-8"?>
<svg version="1.1" xmlns="http://www.w3.org/2000/svg" width="512" height="512">
<path d="M0 0 C6.30230295 3.16861377 12.09276633 7.04960188 17.93847656 10.97460938 C19.67550996 12.13346086 21.41348642 13.29089089 23.15142822 14.44837952 C27.73675841 17.50268208 32.31933374 20.56111601 36.90136719 23.62036133 C40.57834634 26.07487348 44.25750332 28.52609155 47.93847656 30.97460938 C49.35241699 31.91554443 49.35241699 31.91554443 50.79492188 32.87548828 C53.04174737 34.36120713 55.29868502 35.82898586 57.56347656 37.28710938 C58.17707031 37.69509766 58.79066406 38.10308594 59.42285156 38.5234375 C62.54689791 40.51103226 62.54689791 40.51103226 66.14941406 40.83007812 C68.20560929 39.89871377 68.20560929 39.89871377 70.93847656 37.97460938 C74.70473745 37.56374455 77.04381981 37.46993121 80.37597656 39.34960938 C82.78216554 43.39200686 82.25390285 47.38340452 81.93847656 51.97460938 C85.33022819 54.20027665 85.33022819 54.20027665 88.93847656 55.97460938 C91.23983718 55.49078845 91.23983718 55.49078845 92.93847656 53.97460938 C96.65906017 51.49422031 98.53644227 51.51123734 102.93847656 51.97460938 C105.37597656 53.47460938 105.37597656 53.47460938 106.93847656 55.97460938 C107.27099418 58.73287029 107.11917171 61.17383463 106.93847656 63.97460938 C106.93847656 64.63460937 106.93847656 65.29460937 106.93847656 65.97460938 C110.33022819 68.20027665 110.33022819 68.20027665 113.93847656 69.97460938 C116.23983718 69.49078845 116.23983718 69.49078845 117.93847656 67.97460938 C121.65906017 65.49422031 123.53644227 65.51123734 127.93847656 65.97460938 C130.37597656 67.47460938 130.37597656 67.47460938 131.93847656 69.97460938 C132.41964727 73.45278624 132.54137859 76.76880532 130.93847656 79.97460938 C136.33149856 81.954271 136.33149856 81.954271 141.93847656 82.97460938 C142.55722656 82.50023437 143.17597656 82.02585937 143.81347656 81.53710938 C146.94128473 79.23725043 149.15832951 79.50209099 152.93847656 79.97460938 C155.37597656 81.41210937 155.37597656 81.41210937 156.93847656 83.97460938 C157.25736033 87.01184657 157.13253674 89.93408206 156.93847656 92.97460938 C157.50332764 93.14476562 158.06817871 93.31492187 158.65014648 93.49023438 C162.45640448 94.68923155 166.03062984 95.90227216 169.48925781 97.91210938 C183.2648587 105.6659959 198.07590615 105.5043882 213.46615601 106.48989868 C232.23696409 107.75376094 255.72303586 110.77554706 269.18847656 125.22460938 C276.50901393 134.41595074 279.33422043 144.64953403 279.31347656 156.22460938 C279.31105957 157.61969727 279.31105957 157.61969727 279.30859375 159.04296875 C279.16780919 166.93242485 278.2774242 174.1259985 272.94238281 180.27539062 C270.51840241 183.54044024 269.63596193 186.79704331 268.62597656 190.66210938 C266.55991671 197.8049356 263.85259537 203.292971 258.93847656 208.97460938 C258.29265625 209.73 257.64683594 210.48539063 256.98144531 211.26367188 C237.88144569 231.88741915 207.97257391 238.95264041 180.93847656 240.97460938 C176.76699934 241.11098896 172.59906028 241.11404036 168.4256134 241.10832214 C167.20006436 241.1105877 165.97451531 241.11285326 164.71182841 241.11518747 C161.33553299 241.12039617 157.95929112 241.12117689 154.58299553 241.11999309 C150.93102336 241.11978799 147.27905895 241.12531849 143.62709045 241.13005066 C136.47923919 241.13833622 129.33139617 241.14110462 122.1835405 241.14166304 C116.36446718 241.14213951 110.54539655 241.14420084 104.72632408 241.14736366 C88.18998086 241.15616715 71.65364411 241.16078391 55.11729852 241.16003319 C54.22692253 241.15999323 53.33654654 241.15995328 52.41918945 241.15991211 C51.52771195 241.15987123 50.63623444 241.15983035 49.71774247 241.15978823 C35.3006179 241.1593826 20.88351956 241.16893194 6.46640257 241.18305048 C-8.37447979 241.19746792 -23.21534942 241.20431761 -38.05623895 241.2034567 C-46.37290925 241.20312641 -54.68955211 241.2057986 -63.00621605 241.21663475 C-70.0939564 241.22581104 -77.18165691 241.22785753 -84.26940068 241.22112533 C-87.87529689 241.21789467 -91.48111699 241.2176754 -95.08700562 241.22647858 C-139.87473713 241.32867586 -196.71668236 237.55936097 -232.06152344 205.97460938 C-233.58484153 204.45129129 -233.28835084 203.08846608 -233.34716797 200.96679688 C-233.28093441 195.71373675 -231.70382908 191.79817827 -229.49121094 187.09960938 C-228.75253462 185.43832665 -228.01426559 183.77686277 -227.27636719 182.11523438 C-226.10804892 179.53775816 -224.93176692 176.96429611 -223.74658203 174.39453125 C-222.59828384 171.88863208 -221.48114248 169.37049328 -220.36621094 166.84960938 C-220.0059079 166.09309082 -219.64560486 165.33657227 -219.27438354 164.55712891 C-217.05950303 159.50472635 -216.90927359 156.26198009 -218.47846985 150.95788574 C-227.08047981 121.69785993 -203.80967903 77.19338773 -192.24902344 51.78710938 C-191.81750977 50.83835938 -191.38599609 49.88960937 -190.94140625 48.91210938 C-182.56215928 30.95933195 -171.73690139 18.67927923 -153.44042969 10.85351562 C-145.97221278 8.2905315 -135.61320297 6.15261248 -128.06152344 9.09960938 C-118.13472956 15.30385555 -113.67248741 24.13853307 -108.00292969 34.07885742 C-97.65512963 52.60311321 -97.65512963 52.60311321 -80.03808594 63.50195312 C-67.05331064 66.60700809 -53.9228685 59.39759748 -43.06152344 52.97460938 C-43.47144531 52.2965625 -43.88136719 51.61851562 -44.30371094 50.91992188 C-50.00985952 41.06384706 -52.44455746 32.30175809 -50.06152344 20.97460938 C-46.92283014 11.18188627 -42.45987621 0.98706419 -33.06152344 -4.02539062 C-21.94797172 -7.72990787 -10.22173919 -4.82485986 0 0 Z " fill="#020201" transform="translate(233.0615234375,138.025390625)"/>
<path d="M0 0 C4.97115423 10.01332494 7.00808135 18.62089591 3.5625 29.5 C2.62419502 32.21972457 1.70211929 33.5807898 -0.77954102 35.0625 C-6.64667932 37.82627743 -12.77895494 39.47511428 -19.0625 41 C-20.62907349 41.38454346 -20.62907349 41.38454346 -22.22729492 41.77685547 C-35.81753221 45.0223765 -49.57348322 47.12104243 -63.40625 49.02734375 C-64.64012451 49.20056152 -65.87399902 49.3737793 -67.14526367 49.55224609 C-69.54739443 49.88647506 -71.95120867 50.20886842 -74.35668945 50.51806641 C-75.44167725 50.66808105 -76.52666504 50.8180957 -77.64453125 50.97265625 C-79.08856323 51.16226929 -79.08856323 51.16226929 -80.56176758 51.35571289 C-83.28513903 52.07534614 -84.34119147 52.74761987 -86 55 C-86.53074217 58.56355457 -86.54246643 60.26714872 -84.375 63.1953125 C-81.17547073 65.62653376 -79.52973323 65.32228182 -75.5625 64.9375 C-74.91273193 64.8765918 -74.26296387 64.81568359 -73.59350586 64.75292969 C-71.39124641 64.53206168 -69.19670984 64.27038584 -67 64 C-65.82824219 63.86198975 -65.82824219 63.86198975 -64.6328125 63.72119141 C-50.24725338 61.98331935 -36.14784636 59.08525635 -22 56 C-20.45725574 55.66952319 -18.91430737 55.3399968 -17.37109375 55.01171875 C-14.24622759 54.34638398 -11.12253222 53.67618215 -8 53 C-12.02970405 64.19792761 -22.11994191 70.83631854 -32.49584961 75.72558594 C-38.80399941 78.55653049 -45.23852005 80.87808032 -51.875 82.8125 C-52.52017578 83.00730957 -53.16535156 83.20211914 -53.83007812 83.40283203 C-70.83865598 88.0300458 -88.92407888 87.28923758 -106.37196028 87.24679029 C-110.03049335 87.24012487 -113.68901454 87.24518071 -117.34754944 87.24867249 C-124.48963325 87.25367891 -131.63167024 87.248118 -138.77374823 87.23882218 C-147.11171379 87.2283656 -155.44966962 87.22851029 -163.7876405 87.22899476 C-178.67590099 87.2294939 -193.56413988 87.22037423 -208.45239258 87.20581055 C-222.86092522 87.19172366 -237.26943889 87.18464003 -251.67797852 87.18530273 C-253.0095762 87.18536267 -253.0095762 87.18536267 -254.36807484 87.18542381 C-255.25435429 87.18546417 -256.14063373 87.18550452 -257.05377012 87.1855461 C-273.51426856 87.18623803 -289.97475902 87.18033432 -306.43525486 87.17139288 C-312.23136852 87.16839162 -318.0274807 87.16731513 -323.82359505 87.16686058 C-330.89740011 87.16617453 -337.97119172 87.16165581 -345.04499108 87.15252777 C-348.64612572 87.1479487 -352.2472433 87.14484969 -355.84838104 87.14612198 C-393.68463297 87.1564076 -393.68463297 87.1564076 -409.25 84.3125 C-410.21397705 84.13879883 -411.1779541 83.96509766 -412.17114258 83.78613281 C-432.68729503 79.91851214 -457.1021261 73.91036787 -474 61 C-475.36102071 56.91693788 -474.16236072 55.33310517 -472.5078125 51.3984375 C-472.24241669 50.76136871 -471.97702087 50.12429993 -471.70358276 49.46792603 C-471.14129997 48.12291195 -470.57445876 46.77979578 -470.00341797 45.43847656 C-469.12691681 43.37950275 -468.2634424 41.3154565 -467.40234375 39.25 C-463.17677004 29.17677004 -463.17677004 29.17677004 -462 28 C-452.48145684 27.09810081 -442.89343939 28.93926488 -433.5 30.3125 C-431.97665658 30.52865886 -430.45321921 30.74415662 -428.9296875 30.95898438 C-421.97569591 31.94703617 -415.03239069 32.98667694 -408.09857178 34.10769653 C-396.51355716 35.97821736 -384.89338583 37.48077507 -373.25 38.9375 C-371.16467253 39.20068435 -369.07938654 39.46419756 -366.99414062 39.72802734 C-362.87578413 40.24894612 -358.75728589 40.76871912 -354.63867188 41.28759766 C-347.25720391 42.21872624 -339.87837475 43.16969056 -332.5 44.125 C-331.2826416 44.28218506 -330.0652832 44.43937012 -328.81103516 44.60131836 C-322.66782841 45.39472297 -316.52511736 46.19183129 -310.3828125 46.9921875 C-296.13019706 48.8459814 -281.87276213 50.6478958 -267.60205078 52.35717773 C-259.12471977 53.37352046 -250.65118142 54.41649346 -242.1796875 55.48046875 C-219.92367587 58.2674248 -197.69609026 60.84309175 -175.34375 62.71191406 C-169.71655348 63.19673386 -164.0988091 63.77016648 -158.48120117 64.35449219 C-156.32146904 64.57703598 -154.16095352 64.78965818 -152 65 C-151.14623779 65.08757568 -150.29247559 65.17515137 -149.4128418 65.26538086 C-141.1873261 66.04177061 -132.98973628 66.25170565 -124.7331543 66.29516602 C-123.18651294 66.30684437 -121.63991653 66.32753621 -120.09350586 66.35668945 C-117.83159708 66.39911654 -115.57084933 66.41547797 -113.30859375 66.42578125 C-112.61801376 66.44328934 -111.92743378 66.46079742 -111.21592712 66.47883606 C-108.00937127 66.46421815 -106.4180068 66.40191951 -104.05883789 64.13354492 C-102.24151282 60.47165796 -102.7361441 57.79156771 -104 54 C-106.69069078 52.99738995 -109.33948227 52.84335671 -112.19165039 52.73461914 C-113.42057762 52.68435326 -113.42057762 52.68435326 -114.67433167 52.6330719 C-115.55652878 52.60075974 -116.43872589 52.56844757 -117.34765625 52.53515625 C-119.25325881 52.45646733 -121.15885764 52.37768814 -123.06445312 52.29882812 C-126.03874395 52.18065242 -129.01309324 52.06439281 -131.98754883 51.95043945 C-145.06490476 51.44242049 -158.00330014 50.55248095 -171 49 C-168.92701512 43.5735424 -165.93519105 40.21106011 -162 36 C-161.50886719 35.44441406 -161.01773437 34.88882813 -160.51171875 34.31640625 C-152.41521129 25.59226255 -142.06078907 18.72915518 -131.5 13.375 C-130.53139038 12.87915405 -130.53139038 12.87915405 -129.54321289 12.37329102 C-125.29195817 10.31779368 -121.63749196 9.44223506 -117 9 C-116.43732422 9.79664063 -116.43732422 9.79664063 -115.86328125 10.609375 C-110.46094223 18.06650796 -105.08107199 22.70927914 -96 25 C-66.92600789 28.24124773 -37.33831341 13.46557346 -10.93310547 2.99755859 C-9.92908691 2.60262207 -8.92506836 2.20768555 -7.890625 1.80078125 C-7.01438477 1.45184814 -6.13814453 1.10291504 -5.23535156 0.7434082 C-3 0 -3 0 0 0 Z " fill="#CAE4F4" transform="translate(492,276)"/>
<path d="M0 0 C3.86848614 1.11756266 6.28922757 2.02873292 9 5 C8.48308594 5.49628906 7.96617187 5.99257812 7.43359375 6.50390625 C3.01272349 10.91714049 3.01272349 10.91714049 1.875 16.875 C2.74295911 20.25834566 2.74295911 20.25834566 6 22 C9.93733712 22.5609357 11.49415818 22.35907645 14.7734375 20.03125 C15.63195312 19.1959375 16.49046875 18.360625 17.375 17.5 C18.24898438 16.6646875 19.12296875 15.829375 20.0234375 14.96875 C20.67570312 14.3190625 21.32796875 13.669375 22 13 C26.08105062 14.54342971 29.41572782 16.49934499 33 19 C32.55527344 19.49628906 32.11054688 19.99257812 31.65234375 20.50390625 C27.81283564 25.07303477 27.81283564 25.07303477 26.9375 30.875 C27.73571661 34.26379104 27.73571661 34.26379104 31 36 C33.78444577 36.75383338 33.78444577 36.75383338 37 36 C40.48103532 33.55817486 44.0739748 30.85205041 46 27 C50.61513112 28.31860889 54.09897612 30.21355437 58 33 C57.33291016 33.74443359 57.33291016 33.74443359 56.65234375 34.50390625 C52.81283564 39.07303477 52.81283564 39.07303477 51.9375 44.875 C52.73571661 48.26379104 52.73571661 48.26379104 56 50 C59.93733712 50.5609357 61.49415818 50.35907645 64.7734375 48.03125 C65.63195312 47.1959375 66.49046875 46.360625 67.375 45.5 C68.24898437 44.6646875 69.12296875 43.829375 70.0234375 42.96875 C70.67570313 42.3190625 71.32796875 41.669375 72 41 C76.03791199 42.28631545 79.43360176 43.69233055 83 46 C81.85286634 48.58105073 80.77984537 50.23273489 78.8125 52.3125 C76.64715582 54.96942208 76.64715582 54.96942208 77.0625 58.6875 C77.68624135 62.25994448 77.68624135 62.25994448 81 64 C84.89576935 64.5481752 86.4677998 64.38069234 89.703125 62.06640625 C90.54359375 61.24011719 91.3840625 60.41382813 92.25 59.5625 C96.9223301 55.03883495 96.9223301 55.03883495 99 54 C101.34422855 54.88797689 103.5680535 55.83842674 105.8359375 56.89453125 C106.8495787 57.35565559 106.8495787 57.35565559 107.88369751 57.82609558 C110.05090669 58.81422634 112.21288097 59.81328802 114.375 60.8125 C115.82519897 61.47531405 117.27571623 62.13743218 118.7265625 62.79882812 C129.84121772 67.87754647 129.84121772 67.87754647 134 70 C133.35644531 71.8684082 133.35644531 71.8684082 132 74 C123.41186212 78.03536002 113.54583636 78.9923671 104.25 80.3125 C81.90539137 83.72698484 65.16971797 92.35607525 48 107 C47.16855469 107.68578125 46.33710938 108.3715625 45.48046875 109.078125 C36.85024974 116.44894185 30.48983556 125.12814323 25 135 C0.26656194 132.86487306 -24.36138317 130.02771801 -49 127 C-49.2582959 126.33033203 -49.5165918 125.66066406 -49.78271484 124.97070312 C-50.13027832 124.08318359 -50.4778418 123.19566406 -50.8359375 122.28125 C-51.1767334 121.40533203 -51.5175293 120.52941406 -51.86865234 119.62695312 C-57.44351327 106.6823041 -68.62798924 97.73988565 -80 90 C-75.89608887 84.2650106 -71.44291685 79.08397442 -66.5625 74 C-62.1395819 69.36431102 -57.80362021 64.68446172 -53.60522461 59.84375 C-51.4425581 57.35972605 -49.22414039 54.92899543 -47 52.5 C-44.15475772 49.38092989 -41.3280042 46.25244609 -38.5625 43.0625 C-35.13299081 39.11410526 -31.59123177 35.27142542 -28.04931641 31.42431641 C-24.91468711 28.01383111 -21.84266155 24.55832184 -18.80859375 21.05859375 C-16.5698875 18.5104335 -14.28589788 16.00589407 -12 13.5 C-7.94092236 9.04991029 -3.94126319 4.55463859 0 0 Z " fill="#FCE171" transform="translate(279,188)"/>
<path d="M0 0 C5.03382098 1.6481544 9.0260491 4.60648051 13.3125 7.625 C14.42334961 8.3984375 14.42334961 8.3984375 15.55664062 9.1875 C17.37422697 10.45394726 19.18850838 11.72485759 21 13 C17.42149504 17.21059244 13.79725819 21.36376862 10.0625 25.4375 C7.19593863 28.57706721 4.34683134 31.72481 1.5625 34.9375 C-1.86768576 38.88667367 -5.41003518 42.73022305 -8.95288086 46.57788086 C-11.50540453 49.3547637 -14.02975746 52.14972015 -16.5 55 C-19.9067735 58.9308925 -23.43002785 62.75196573 -26.953125 66.578125 C-29.50555143 69.35494057 -32.02983288 72.14980717 -34.5 75 C-37.43844395 78.39051225 -40.46129279 81.69954682 -43.5 85 C-51.58003957 93.72291905 -51.58003957 93.72291905 -59 103 C-62.74872099 102.3933605 -65.76608403 101.31146864 -69.16796875 99.63671875 C-70.63266602 98.92418945 -70.63266602 98.92418945 -72.12695312 98.19726562 C-73.13693359 97.69904297 -74.14691406 97.20082031 -75.1875 96.6875 C-88.46481781 89.15881595 -88.46481781 89.15881595 -103 87 C-103.99 87.66 -104.98 88.32 -106 89 C-106.36416047 91.43693311 -106.36416047 91.43693311 -106.1875 94.125 C-106.16042969 95.03507812 -106.13335937 95.94515625 -106.10546875 96.8828125 C-106.05326172 97.93082031 -106.05326172 97.93082031 -106 99 C-105.12561279 99.27980713 -104.25122559 99.55961426 -103.3503418 99.84790039 C-78.80839227 108.28726932 -47.8719892 122.55345729 -33 145 C-33 145.33 -33 145.66 -33 146 C-43.99603079 145.41301967 -54.83707632 144.25409314 -65.75 142.8125 C-67.43609556 142.59310046 -69.12221264 142.37386625 -70.80834961 142.15478516 C-88.24275717 139.87750334 -105.65388044 137.42960203 -123.06422424 134.97631836 C-129.14553418 134.11940941 -135.22758 133.26845341 -141.3125 132.4375 C-142.10180908 132.32962158 -142.89111816 132.22174316 -143.7043457 132.1105957 C-149.41348692 131.33663634 -155.12633415 130.59239972 -160.83984375 129.8515625 C-164.143317 129.4225481 -167.44669831 128.99283331 -170.75 128.5625 C-171.56926971 128.45578979 -172.38853943 128.34907959 -173.2326355 128.23913574 C-187.52398447 126.37245571 -201.77067062 124.29624683 -216 122 C-216.34014697 111.48064006 -215.88816676 102.20648761 -213 92 C-212.50286848 90.07065625 -212.00575953 88.14130644 -211.50976562 86.21166992 C-209.90868325 80.05041662 -208.10726979 74.00571891 -206 68 C-198.28873133 69.14361681 -190.89763642 70.68335806 -183.4375 72.9375 C-182.45241455 73.22963379 -181.4673291 73.52176758 -180.45239258 73.82275391 C-164.24782679 78.66900217 -148.04658508 83.65113831 -132 89 C-127.35478718 89.40872999 -127.35478718 89.40872999 -123.0625 87.9375 C-121.36664713 84.84506242 -121.56939343 82.44485259 -122 79 C-124.66093285 76.53305434 -127.38930567 75.3136971 -130.7890625 74.1328125 C-131.72145752 73.80708252 -132.65385254 73.48135254 -133.61450195 73.14575195 C-134.60796631 72.80890381 -135.60143066 72.47205566 -136.625 72.125 C-137.65391357 71.77203857 -138.68282715 71.41907715 -139.74291992 71.05541992 C-148.0250248 68.25109113 -156.36451793 65.8083175 -164.81738281 63.58105469 C-168.6174515 62.56940329 -172.40094917 61.49839578 -176.1875 60.4375 C-184.10911214 58.23104331 -192.04928556 56.09908243 -200 54 C-199.01 51.03 -198.02 48.06 -197 45 C-190.86890694 45.57151657 -185.46744428 46.94105942 -179.64453125 48.90625 C-178.7798674 49.19101196 -177.91520355 49.47577393 -177.02433777 49.76916504 C-174.28471549 50.67253817 -171.548484 51.58567328 -168.8125 52.5 C-166.06531939 53.4127566 -163.31746247 54.32337629 -160.56852722 55.23083496 C-158.86451833 55.79388959 -157.16158976 56.36022735 -155.45991516 56.93029785 C-142.89402307 61.09875281 -126.30645168 62.88382016 -114 57 C-113.19175781 56.49339844 -112.38351563 55.98679688 -111.55078125 55.46484375 C-103.40951872 50.55221315 -96.66322679 50.65206574 -87.43310547 50.89233398 C-80.11898588 51.06960618 -73.90863961 50.59938801 -67 48 C-65.92363281 47.60941406 -64.84726563 47.21882813 -63.73828125 46.81640625 C-48.55791727 40.81565767 -35.47407184 31.37697135 -23 21 C-22.39881348 20.50177734 -21.79762695 20.00355469 -21.17822266 19.49023438 C-13.77012573 13.32237161 -6.66337628 6.98067991 0 0 Z " fill="#F96471" transform="translate(246,166)"/>
<path d="M0 0 C5.03382098 1.6481544 9.0260491 4.60648051 13.3125 7.625 C14.42334961 8.3984375 14.42334961 8.3984375 15.55664062 9.1875 C17.37422697 10.45394726 19.18850838 11.72485759 21 13 C17.42149504 17.21059244 13.79725819 21.36376862 10.0625 25.4375 C7.19593863 28.57706721 4.34683134 31.72481 1.5625 34.9375 C-1.86768576 38.88667367 -5.41003518 42.73022305 -8.95288086 46.57788086 C-11.50540453 49.3547637 -14.02975746 52.14972015 -16.5 55 C-19.9067735 58.9308925 -23.43002785 62.75196573 -26.953125 66.578125 C-29.50555143 69.35494057 -32.02983288 72.14980717 -34.5 75 C-37.43844395 78.39051225 -40.46129279 81.69954682 -43.5 85 C-51.58003957 93.72291905 -51.58003957 93.72291905 -59 103 C-62.74872099 102.3933605 -65.76608403 101.31146864 -69.16796875 99.63671875 C-70.63266602 98.92418945 -70.63266602 98.92418945 -72.12695312 98.19726562 C-73.13693359 97.69904297 -74.14691406 97.20082031 -75.1875 96.6875 C-88.47415403 89.10699184 -88.47415403 89.10699184 -103 87 C-103.680625 87.515625 -104.36125 88.03125 -105.0625 88.5625 C-107 90 -107 90 -109.1875 89.875 C-113.1462857 88.64337778 -117.08241963 87.35707033 -121 86 C-121.0825 84.906875 -121.165 83.81375 -121.25 82.6875 C-121.61825601 79.0369895 -121.61825601 79.0369895 -123.74755859 77.38623047 C-126.06572915 75.95954801 -128.21968143 75.02527119 -130.7890625 74.1328125 C-131.72145752 73.80708252 -132.65385254 73.48135254 -133.61450195 73.14575195 C-134.60796631 72.80890381 -135.60143066 72.47205566 -136.625 72.125 C-137.65391357 71.77203857 -138.68282715 71.41907715 -139.74291992 71.05541992 C-148.0250248 68.25109113 -156.36451793 65.8083175 -164.81738281 63.58105469 C-168.6174515 62.56940329 -172.40094917 61.49839578 -176.1875 60.4375 C-184.10911214 58.23104331 -192.04928556 56.09908243 -200 54 C-199.01 51.03 -198.02 48.06 -197 45 C-190.86890694 45.57151657 -185.46744428 46.94105942 -179.64453125 48.90625 C-178.7798674 49.19101196 -177.91520355 49.47577393 -177.02433777 49.76916504 C-174.28471549 50.67253817 -171.548484 51.58567328 -168.8125 52.5 C-166.06531939 53.4127566 -163.31746247 54.32337629 -160.56852722 55.23083496 C-158.86451833 55.79388959 -157.16158976 56.36022735 -155.45991516 56.93029785 C-142.89402307 61.09875281 -126.30645168 62.88382016 -114 57 C-113.19175781 56.49339844 -112.38351563 55.98679688 -111.55078125 55.46484375 C-103.40951872 50.55221315 -96.66322679 50.65206574 -87.43310547 50.89233398 C-80.11898588 51.06960618 -73.90863961 50.59938801 -67 48 C-65.92363281 47.60941406 -64.84726563 47.21882813 -63.73828125 46.81640625 C-48.55791727 40.81565767 -35.47407184 31.37697135 -23 21 C-22.39881348 20.50177734 -21.79762695 20.00355469 -21.17822266 19.49023438 C-13.77012573 13.32237161 -6.66337628 6.98067991 0 0 Z " fill="#4593B9" transform="translate(246,166)"/>
<path d="M0 0 C4.97115423 10.01332494 7.00808135 18.62089591 3.5625 29.5 C2.62419502 32.21972457 1.70211929 33.5807898 -0.77954102 35.0625 C-6.64667932 37.82627743 -12.77895494 39.47511428 -19.0625 41 C-20.10688232 41.2563623 -21.15126465 41.51272461 -22.22729492 41.77685547 C-35.81753221 45.0223765 -49.57348322 47.12104243 -63.40625 49.02734375 C-65.25706177 49.28717041 -65.25706177 49.28717041 -67.14526367 49.55224609 C-69.54739443 49.88647506 -71.95120867 50.20886842 -74.35668945 50.51806641 C-75.44167725 50.66808105 -76.52666504 50.8180957 -77.64453125 50.97265625 C-78.60721924 51.09906494 -79.56990723 51.22547363 -80.56176758 51.35571289 C-83.27503337 52.07267579 -84.30676031 52.79629079 -86 55 C-86.71447643 57.10332891 -86.71447643 57.10332891 -87 59 C-92.08086796 59.84681133 -96.84828377 60.09038099 -102 60 C-102.2475 59.030625 -102.495 58.06125 -102.75 57.0625 C-103.1625 56.051875 -103.575 55.04125 -104 54 C-106.69286101 52.99942214 -109.33772487 52.84342371 -112.19165039 52.73461914 C-113.01093521 52.70110855 -113.83022003 52.66759796 -114.67433167 52.6330719 C-115.99762733 52.58460365 -115.99762733 52.58460365 -117.34765625 52.53515625 C-119.25325881 52.45646733 -121.15885764 52.37768814 -123.06445312 52.29882812 C-126.03874395 52.18065242 -129.01309324 52.06439281 -131.98754883 51.95043945 C-145.06490476 51.44242049 -158.00330014 50.55248095 -171 49 C-168.92701512 43.5735424 -165.93519105 40.21106011 -162 36 C-161.26330078 35.16662109 -161.26330078 35.16662109 -160.51171875 34.31640625 C-152.41521129 25.59226255 -142.06078907 18.72915518 -131.5 13.375 C-130.85426025 13.04443604 -130.20852051 12.71387207 -129.54321289 12.37329102 C-125.29195817 10.31779368 -121.63749196 9.44223506 -117 9 C-116.62488281 9.53109375 -116.24976563 10.0621875 -115.86328125 10.609375 C-110.46094223 18.06650796 -105.08107199 22.70927914 -96 25 C-66.92600789 28.24124773 -37.33831341 13.46557346 -10.93310547 2.99755859 C-9.92908691 2.60262207 -8.92506836 2.20768555 -7.890625 1.80078125 C-7.01438477 1.45184814 -6.13814453 1.10291504 -5.23535156 0.7434082 C-3 0 -3 0 0 0 Z " fill="#4593B9" transform="translate(492,276)"/>
<path d="M0 0 C8.45937686 1.21227373 16.50849451 3.1032206 24.6875 5.5625 C26.31075195 6.03719727 26.31075195 6.03719727 27.96679688 6.52148438 C35.85742885 8.85742885 35.85742885 8.85742885 37 10 C36.90870856 11.69500312 36.75199383 13.38650977 36.5703125 15.07421875 C35.93487088 21.97519649 35.84800966 28.84140108 35.86962891 35.76538086 C35.87503905 37.82738436 35.86962061 39.88917449 35.86328125 41.95117188 C35.8639414 43.28645881 35.86522124 44.6217456 35.8671875 45.95703125 C35.86887939 47.73557495 35.86887939 47.73557495 35.87060547 49.55004883 C36.00353151 53.09415799 36.43763775 56.50045381 37 60 C27.21014326 59.4257927 17.58444345 58.38419752 7.875 57 C6.58851562 56.82210937 5.30203125 56.64421875 3.9765625 56.4609375 C-6.25522506 55.02677481 -6.25522506 55.02677481 -10 54 C-10.34014697 43.48064006 -9.88816676 34.20648761 -7 24 C-6.50286848 22.07065625 -6.00575953 20.14130644 -5.50976562 18.21166992 C-3.90868325 12.05041662 -2.10726979 6.00571891 0 0 Z " fill="#E8384D" transform="translate(40,234)"/>
<path d="M0 0 C8.51394276 0.07713651 16.88650098 1.48408889 25.29296875 2.71875 C26.9771129 2.96033802 28.66135722 3.20122888 30.34570312 3.44140625 C34.43349023 4.02582703 38.51980809 4.61965149 42.60546875 5.21875 C42.8235781 10.99523987 42.00457831 16.21915581 40.85546875 21.87109375 C40.58911621 23.22129356 40.58911621 23.22129356 40.31738281 24.59877014 C39.75295019 27.45253687 39.17935899 30.30437178 38.60546875 33.15625 C38.21944416 35.09948871 37.83402114 37.04284702 37.44921875 38.98632812 C36.50825784 43.73188113 35.55908293 48.47572418 34.60546875 53.21875 C25.55462999 51.06735587 16.66433684 48.85663065 7.98046875 45.46875 C6.66224121 44.95985229 6.66224121 44.95985229 5.31738281 44.44067383 C-2.25632617 41.43208227 -9.77822212 38.03158132 -16.39453125 33.21875 C-17.75555196 29.13568788 -16.55689197 27.55185517 -14.90234375 23.6171875 C-14.63694794 22.98011871 -14.37155212 22.34304993 -14.09811401 21.68667603 C-13.53583122 20.34166195 -12.96899001 18.99854578 -12.39794922 17.65722656 C-11.52144806 15.59825275 -10.65797365 13.5342065 -9.796875 11.46875 C-5.01330957 0.06533877 -5.01330957 0.06533877 0 0 Z " fill="#9BC7DD" transform="translate(34.39453125,303.78125)"/>
<path d="M0 0 C5.38426862 4.48703872 8.57836992 11.20789264 11.875 17.25 C17.35609154 27.06140033 22.87939564 36.13316453 31 44 C31 44.66 31 45.32 31 46 C17.3209222 52.49176573 4.12571499 50.88870774 -9.62768555 46.00219727 C-10.26617432 45.77459717 -10.90466309 45.54699707 -11.5625 45.3125 C-12.85535781 44.87081019 -14.14898077 44.43135368 -15.44335938 43.99414062 C-18.00745445 43.12514781 -20.56423702 42.23816287 -23.11767578 41.33837891 C-25.82025447 40.39288617 -28.53509454 39.50818862 -31.26904297 38.65771484 C-31.9615062 38.43899216 -32.65396942 38.22026947 -33.36741638 37.99491882 C-35.29704289 37.38855821 -37.23033912 36.79391218 -39.16381836 36.19995117 C-40.0997583 35.80396729 -41.03569824 35.4079834 -42 35 C-43 32 -43 32 -41.8828125 29.21484375 C-34.88231019 16.1627961 -26.6104157 6.43270654 -12.375 1.125 C-7.9561152 -0.15312541 -4.58433558 -0.75153042 0 0 Z " fill="#E6384D" transform="translate(99,162)"/>
<path d="M0 0 C6.87401079 -0.14851258 13.44116883 0.39073602 20.25 1.3125 C21.25619385 1.44567627 22.2623877 1.57885254 23.29907227 1.71606445 C30.65575987 2.72692059 37.82565443 4.05838249 45 6 C42.41642379 9.11397552 39.60286135 10.11630722 35.84765625 11.48828125 C35.2397525 11.71219543 34.63184875 11.93610962 34.00552368 12.16680908 C32.02780577 12.89147531 30.04560661 13.60272552 28.0625 14.3125 C27.38893463 14.55644501 26.71536926 14.80039001 26.02139282 15.05172729 C-20.55798555 31.9210831 -20.55798555 31.9210831 -33.25 26.5 C-34.1575 26.005 -35.065 25.51 -36 25 C-36 24.34 -36 23.68 -36 23 C-34.44152344 22.63648438 -34.44152344 22.63648438 -32.8515625 22.265625 C-15.34007017 18.77266245 -15.34007017 18.77266245 -2.1875 8.0625 C-1.13340295 5.34403918 -0.42318371 2.8776492 0 0 Z " fill="#F2616E" transform="translate(428,259)"/>
<path d="M0 0 C3.96498315 1.32166105 4.2899101 2.87291775 6.25 6.5 C9.88741944 12.9596878 13.84588903 18.96312147 19.20703125 24.125 C21 26 21 26 21 28 C8.47661253 33.94330253 -3.6800182 33.31228865 -16.62109375 29.16796875 C-17.40613281 28.78253906 -18.19117187 28.39710938 -19 28 C-20 25 -20 25 -19.03125 22.6171875 C-14.04029427 13.6793025 -9.06052456 5.22722571 0 0 Z " fill="#F76370" transform="translate(109,180)"/>
<path d="M0 0 C2.92027702 0.89953157 5.62264469 2.11812518 8.375 3.4375 C9.44041016 3.92573242 9.44041016 3.92573242 10.52734375 4.42382812 C13.03697242 5.57863828 15.52903816 6.76451908 18 8 C16.39734451 11.95509131 13.67011171 14.67288145 10.6875 17.625 C10.16639648 18.14481445 9.64529297 18.66462891 9.10839844 19.20019531 C3.4916537 24.68344642 -2.66631505 29.38253936 -9 34 C-12.49841514 32.60357379 -13.74197758 31.30993996 -15.25 27.875 C-17.5854373 21.99903974 -18.14273119 17.80846789 -15.75390625 11.9375 C-9.34616265 -1.35736952 -9.34616265 -1.35736952 0 0 Z " fill="#F8DE6F" transform="translate(215,148)"/>
<path d="M0 0 C7.62524914 0.51904542 14.34151137 2.99409721 21.5 5.5625 C22.70398438 5.98724609 23.90796875 6.41199219 25.1484375 6.84960938 C28.10158041 7.89258445 31.051899 8.94287519 34 10 C33.34 12.64 32.68 15.28 32 18 C23.82033062 16.25026203 15.82605484 14.14644001 7.82641602 11.71411133 C4.23790597 10.62848683 0.69434143 9.64939595 -3 9 C-2.01 6.03 -1.02 3.06 0 0 Z " fill="#0D6C89" transform="translate(49,211)"/>
<path d="M0 0 C2.4375 1.5625 2.4375 1.5625 4 4 C4.5625 7.5 4.5625 7.5 4 11 C1.9375 13.5 1.9375 13.5 -1 15 C-4.80284671 15 -7.01930006 14.7968187 -10 12.375 C-11.45635054 8.91616747 -10.91305869 6.58701629 -10 3 C-7.67133148 -1.01048467 -4.26353269 -0.52359173 0 0 Z " fill="#020607" transform="translate(248,180)"/>
</svg>
